<svg version="1.1" id="Layer_1" xmlns="http://www.w3.org/2000/svg" xmlns:xlink="http://www.w3.org/1999/xlink" x="0px" y="0px"
	 width="100%" viewBox="0 0 1366 2184" enable-background="new 0 0 1366 2184" xml:space="preserve">
<path fill="#BBE7DD" opacity="1.000000" stroke="none" 
	d="
M1350.000000,2185.000000 
	C1127.973145,2185.000000 905.946289,2185.000000 683.458313,2184.531250 
	C682.996460,2155.067139 682.361511,2126.053711 683.173645,2097.081055 
	C683.984924,2068.140869 680.201050,2039.138550 685.646301,2010.193848 
	C687.765747,1998.927612 685.970703,1986.929443 686.021851,1975.264893 
	C686.029236,1973.582886 686.392761,1971.902344 686.713501,1969.188232 
	C693.863831,1973.187256 700.180725,1976.473755 706.244202,1980.175415 
	C713.431213,1984.563110 720.182312,1989.705688 727.549438,1993.741455 
	C731.612244,1995.967041 736.525146,1996.689941 741.104431,1997.902954 
	C743.399170,1998.510742 745.974854,1998.276367 748.134033,1999.143677 
	C766.323242,2006.450317 784.172546,2014.710205 802.663269,2021.130127 
	C821.907715,2027.811646 841.933289,2030.332275 862.511658,2028.147339 
	C883.854126,2025.880981 903.088501,2018.298218 921.181213,2007.233276 
	C938.832031,1996.438232 953.064087,1981.698730 967.395386,1967.079590 
	C968.570435,1965.880981 969.651733,1964.590698 970.776611,1963.343018 
	C971.183594,1963.481201 971.590576,1963.619507 971.997559,1963.757812 
	C971.997559,1965.506836 971.997437,1967.255859 971.997620,1969.004883 
	C971.999146,1989.001587 971.996460,2008.998413 972.004639,2028.995117 
	C972.007690,2036.390259 972.511292,2036.784424 979.790955,2034.844604 
	C988.294434,2032.578613 996.674438,2029.677246 1005.297546,2028.066528 
	C1026.805664,2024.048950 1048.349121,2020.086182 1070.014771,2017.086426 
	C1089.530884,2014.384399 1109.193848,2012.467407 1128.855957,2011.179321 
	C1145.767822,2010.071533 1162.768555,2010.228149 1179.732422,2010.033325 
	C1194.947632,2009.858643 1209.874634,2007.882690 1224.375244,2003.270508 
	C1228.400024,2001.990234 1232.140747,1999.816650 1236.394775,1998.028320 
	C1244.006958,1994.678833 1251.818726,1992.223267 1258.345825,1987.850098 
	C1272.519775,1978.353760 1286.820312,1968.771240 1299.610962,1957.560303 
	C1313.429932,1945.447876 1325.614136,1931.465698 1338.453613,1918.243042 
	C1342.675781,1913.894897 1346.717529,1909.371582 1350.903198,1905.386963 
	C1350.977783,1986.290894 1351.034302,2066.736084 1350.958618,2147.181396 
	C1350.946777,2159.787842 1350.334595,2172.393799 1350.000000,2185.000000 
z"/>
<path fill="#BBE7DD" opacity="1.000000" stroke="none" 
	d="
M636.000000,2185.000000 
	C430.306458,2185.000000 224.612946,2185.000000 18.458302,2184.583008 
	C17.662811,2180.718506 17.037331,2177.270752 17.036043,2173.822998 
	C16.987101,2042.677734 16.994473,1911.532349 17.006348,1780.387085 
	C17.006514,1778.560181 17.159372,1776.733398 17.552906,1775.021729 
	C20.220285,1780.039307 22.587128,1784.936157 24.929338,1789.844971 
	C39.435429,1820.246460 55.857998,1849.599487 76.004013,1876.594116 
	C90.578758,1896.123901 106.063606,1915.047974 122.161392,1933.345825 
	C136.443481,1949.579712 152.927948,1963.673706 170.710052,1976.104614 
	C183.672775,1985.166382 196.958115,1993.676147 212.249374,1999.251709 
	C227.086014,2005.945557 242.455185,2009.898804 258.241882,2010.800659 
	C282.455933,2012.183838 306.744781,2012.210205 330.993469,2013.054565 
	C341.762604,2013.429565 352.576141,2013.874023 363.255157,2015.204712 
	C383.800781,2017.764771 404.343658,2020.519409 424.746765,2024.015503 
	C469.252014,2031.641235 512.164734,2044.225464 551.885010,2066.388428 
	C567.971924,2075.364502 582.635132,2086.325684 595.485596,2099.321533 
	C608.375916,2112.357910 618.891418,2127.345459 625.854614,2144.592041 
	C631.113953,2157.618408 634.965515,2170.940674 636.000000,2185.000000 
z"/>
<path fill="#85CBCB" opacity="1.000000" stroke="none" 
	d="
M17.240965,1774.906494 
	C17.159372,1776.733398 17.006514,1778.560181 17.006348,1780.387085 
	C16.994473,1911.532349 16.987101,2042.677734 17.036043,2173.822998 
	C17.037331,2177.270752 17.662811,2180.718506 17.998596,2184.583008 
	C12.333740,2185.000000 6.667480,2185.000000 1.000915,2185.000000 
	C1.000610,1457.052612 1.000610,729.105286 1.000610,1.078976 
	C456.247986,1.078976 911.496033,1.078976 1366.872070,1.078976 
	C1366.872070,729.000000 1366.872070,1457.000000 1366.872070,2185.000000 
	C1361.579102,2185.000000 1356.245605,2185.000000 1350.456055,2185.000000 
	C1350.334595,2172.393799 1350.946777,2159.787842 1350.958618,2147.181396 
	C1351.034302,2066.736084 1350.977783,1986.290894 1350.933594,1904.925659 
	C1350.914673,1902.172852 1350.937744,1900.339966 1350.937744,1898.507202 
	C1350.939331,1289.003174 1350.939209,679.499146 1350.938110,69.995117 
	C1350.938110,68.162323 1351.174561,66.286591 1350.870850,64.504105 
	C1349.502319,56.469955 1348.172485,48.373993 1341.035400,42.569855 
	C1340.072510,41.069370 1339.368408,39.636559 1338.228149,38.793495 
	C1330.597534,33.151482 1322.442383,29.861372 1312.490845,29.865202 
	C893.072632,30.026632 473.654388,30.005478 54.236164,30.008596 
	C52.736576,30.008608 51.214481,29.868618 49.740974,30.071093 
	C38.501587,31.615511 29.121635,36.132153 23.287548,46.827591 
	C17.804140,53.496685 17.075323,61.244953 17.074205,69.127548 
	C17.053150,217.605011 17.058554,366.082458 17.058542,514.559937 
	C17.058510,928.678528 17.057758,1342.797119 17.066082,1756.915771 
	C17.066202,1762.912720 17.180145,1768.909546 17.240965,1774.906494 
z"/>
<path fill="#C9ECE3" opacity="1.000000" stroke="none" 
	d="
M636.468628,2185.000000 
	C634.965515,2170.940674 631.113953,2157.618408 625.854614,2144.592041 
	C618.891418,2127.345459 608.375916,2112.357910 595.485596,2099.321533 
	C582.635132,2086.325684 567.971924,2075.364502 551.885010,2066.388428 
	C512.164734,2044.225464 469.252014,2031.641235 424.746765,2024.015503 
	C404.343658,2020.519409 383.800781,2017.764771 363.255157,2015.204712 
	C352.576141,2013.874023 341.762604,2013.429565 330.993469,2013.054565 
	C306.744781,2012.210205 282.455933,2012.183838 258.241882,2010.800659 
	C242.455185,2009.898804 227.086014,2005.945557 212.480560,1998.990112 
	C231.517746,1990.309570 250.565964,1982.118408 269.633881,1973.973267 
	C279.075714,1969.940186 288.553711,1965.991821 298.409851,1962.001343 
	C300.393616,1961.576782 302.027863,1961.278564 303.564972,1960.715210 
	C316.832642,1955.853394 329.978088,1950.634155 343.359039,1946.110229 
	C375.033173,1935.401733 406.907684,1925.205811 439.752075,1918.747559 
	C460.220764,1914.722778 480.887268,1910.968628 501.641907,1909.319946 
	C527.397034,1907.274170 553.042175,1909.771362 578.148560,1916.928955 
	C603.075073,1924.035278 626.703186,1934.140137 649.746643,1945.821533 
	C666.906128,1954.520020 684.158447,1963.035522 701.325378,1971.719604 
	C705.771790,1973.968872 710.132080,1976.414307 714.391724,1979.000610 
	C721.589966,1983.370972 728.761169,1987.797607 735.777466,1992.451294 
	C739.923767,1995.201050 743.164978,1994.246826 747.085754,1991.704224 
	C757.683350,1984.831421 768.177063,1977.607178 779.450317,1972.008911 
	C800.883484,1961.365356 822.817261,1951.727783 844.567810,1941.726196 
	C880.629089,1925.143799 917.914673,1914.273804 958.210754,1915.824341 
	C970.753113,1916.306885 983.343323,1914.876709 995.869019,1917.154907 
	C1028.295776,1923.052734 1060.232788,1930.901978 1091.478149,1941.374878 
	C1113.087036,1948.617798 1134.502808,1956.436768 1156.363525,1964.051025 
	C1174.761475,1971.558716 1192.844727,1978.910400 1210.821167,1986.514526 
	C1219.323486,1990.111206 1227.621216,1994.191528 1236.011719,1998.052734 
	C1232.140747,1999.816650 1228.400024,2001.990234 1224.375244,2003.270508 
	C1209.874634,2007.882690 1194.947632,2009.858643 1179.732422,2010.033325 
	C1162.768555,2010.228149 1145.767822,2010.071533 1128.855957,2011.179321 
	C1109.193848,2012.467407 1089.530884,2014.384399 1070.014771,2017.086426 
	C1048.349121,2020.086182 1026.805664,2024.048950 1005.297546,2028.066528 
	C996.674438,2029.677246 988.294434,2032.578613 979.790955,2034.844604 
	C972.511292,2036.784424 972.007690,2036.390259 972.004639,2028.995117 
	C971.996460,2008.998413 971.999146,1989.001587 971.997620,1969.004883 
	C971.997437,1967.255859 971.997559,1965.506836 971.997559,1963.757812 
	C971.590576,1963.619507 971.183594,1963.481201 970.776611,1963.343018 
	C969.651733,1964.590698 968.570435,1965.880981 967.395386,1967.079590 
	C953.064087,1981.698730 938.832031,1996.438232 921.181213,2007.233276 
	C903.088501,2018.298218 883.854126,2025.880981 862.511658,2028.147339 
	C841.933289,2030.332275 821.907715,2027.811646 802.663269,2021.130127 
	C784.172546,2014.710205 766.323242,2006.450317 748.134033,1999.143677 
	C745.974854,1998.276367 743.399170,1998.510742 741.104431,1997.902954 
	C736.525146,1996.689941 731.612244,1995.967041 727.549438,1993.741455 
	C720.182312,1989.705688 713.431213,1984.563110 706.244202,1980.175415 
	C700.180725,1976.473755 693.863831,1973.187256 686.713501,1969.188232 
	C686.392761,1971.902344 686.029236,1973.582886 686.021851,1975.264893 
	C685.970703,1986.929443 687.765747,1998.927612 685.646301,2010.193848 
	C680.201050,2039.138550 683.984924,2068.140869 683.173645,2097.081055 
	C682.361511,2126.053711 682.996460,2155.067139 682.998596,2184.531250 
	C667.645752,2185.000000 652.291565,2185.000000 636.468628,2185.000000 
z"/>
<path fill="#DAF3ED" opacity="1.000000" stroke="none" 
	d="
M1236.394775,1998.028320 
	C1227.621216,1994.191528 1219.323486,1990.111206 1210.821167,1986.514526 
	C1192.844727,1978.910400 1174.761475,1971.558716 1156.288574,1963.720215 
	C1155.038574,1962.537109 1154.320190,1961.593872 1153.391235,1960.958374 
	C1132.534912,1946.689575 1111.905884,1932.069214 1090.720459,1918.305298 
	C1060.571777,1898.718140 1029.089111,1881.502808 996.764587,1865.662109 
	C961.823730,1848.539307 925.050293,1836.354004 888.630615,1823.194214 
	C871.927979,1817.158813 854.800171,1812.205688 837.669006,1807.471313 
	C808.122009,1799.305298 777.800110,1795.517578 747.274780,1794.207886 
	C729.196350,1793.432373 710.975647,1793.888428 692.921448,1795.200806 
	C673.781311,1796.592285 654.513489,1798.436523 635.750366,1802.276611 
	C608.929993,1807.765503 582.191956,1814.186523 556.032349,1822.209961 
	C534.483826,1828.819092 513.379883,1837.364868 492.884338,1846.801758 
	C464.652130,1859.800903 436.618683,1873.451904 409.540710,1888.674805 
	C383.637268,1903.237305 358.904755,1919.921753 333.975525,1936.161499 
	C321.620209,1944.210205 309.979340,1953.355591 298.015259,1962.004883 
	C288.553711,1965.991821 279.075714,1969.940186 269.633881,1973.973267 
	C250.565964,1982.118408 231.517746,1990.309570 212.230194,1998.743286 
	C196.958115,1993.676147 183.672775,1985.166382 170.710052,1976.104614 
	C152.927948,1963.673706 136.443481,1949.579712 122.161392,1933.345825 
	C106.063606,1915.047974 90.578758,1896.123901 76.004013,1876.594116 
	C55.857998,1849.599487 39.435429,1820.246460 24.929338,1789.844971 
	C22.587128,1784.936157 20.220285,1780.039307 17.552906,1775.021729 
	C17.180145,1768.909546 17.066202,1762.912720 17.066082,1756.915771 
	C17.057758,1342.797119 17.058510,928.678528 17.058542,514.559937 
	C17.058554,366.082458 17.053150,217.605011 17.074205,69.127548 
	C17.075323,61.244953 17.804140,53.496685 23.389526,46.902412 
	C23.809799,46.845833 24.005850,47.005703 23.952511,47.366478 
	C22.265982,53.416290 19.224804,59.101376 19.208790,64.794968 
	C18.925486,165.521820 19.010553,266.249725 19.011520,367.447449 
	C19.004707,411.748993 19.027500,455.580566 18.949375,499.411957 
	C18.943533,502.690063 19.518883,504.947113 22.815157,506.592773 
	C48.246147,519.289307 73.312042,532.751343 99.026527,544.836914 
	C130.412598,559.588013 163.345352,570.331116 196.872528,579.116455 
	C227.740662,587.205139 258.966583,593.621643 290.848511,595.979431 
	C314.176788,597.704590 337.546753,599.254333 360.923431,599.802917 
	C376.828705,600.176086 392.796570,598.972534 408.701935,597.941650 
	C423.915802,596.955566 439.236847,596.197144 454.240875,593.710266 
	C481.570679,589.180237 509.042786,584.771179 535.823914,577.863159 
	C566.369873,569.984009 596.356445,559.826172 626.348328,549.937561 
	C663.404541,537.719666 698.701721,521.186646 733.673035,504.042419 
	C750.844360,495.624390 767.753235,486.611115 784.391541,477.180389 
	C806.521973,464.636688 828.662415,452.033051 850.089600,438.345367 
	C877.970093,420.535278 905.216125,401.726196 932.598083,383.145081 
	C939.982910,378.133789 946.871399,372.391113 954.289795,366.822815 
	C958.067627,364.781250 961.543396,362.901031 965.402954,361.003723 
	C967.689087,360.402802 969.657532,359.976868 971.483704,359.211609 
	C1000.777771,346.936340 1030.082031,334.684357 1059.303589,322.238190 
	C1063.744629,320.346710 1067.782471,317.508667 1072.372070,315.147064 
	C1079.662476,318.381256 1086.670776,321.409180 1093.497925,324.801636 
	C1122.471313,339.198517 1148.017090,358.607880 1171.596436,380.430573 
	C1196.375732,403.363861 1219.089111,428.296783 1239.822021,455.066711 
	C1270.143066,494.216675 1297.318359,535.342041 1320.111450,579.305054 
	C1330.449707,599.245605 1340.750977,619.245483 1347.013672,641.303833 
	C1347.396484,642.223083 1347.776001,642.823120 1348.155518,643.423157 
	C1348.130371,642.625427 1348.105347,641.827759 1348.071289,640.559631 
	C1348.055176,638.090149 1348.042114,636.091125 1348.042236,634.092041 
	C1348.045044,445.511017 1348.022095,256.929993 1348.145142,68.349060 
	C1348.150269,60.396709 1346.681763,53.233593 1342.195312,46.668385 
	C1341.499146,45.649601 1341.380615,44.235935 1341.019287,42.981201 
	C1341.043579,42.957500 1341.092285,42.910385 1341.092285,42.910385 
	C1348.172485,48.373993 1349.502319,56.469955 1350.870850,64.504105 
	C1351.174561,66.286591 1350.938110,68.162323 1350.938110,69.995117 
	C1350.939209,679.499146 1350.939331,1289.003174 1350.937744,1898.507202 
	C1350.937744,1900.339966 1350.914673,1902.172852 1350.872070,1904.467041 
	C1346.717529,1909.371582 1342.675781,1913.894897 1338.453613,1918.243042 
	C1325.614136,1931.465698 1313.429932,1945.447876 1299.610962,1957.560303 
	C1286.820312,1968.771240 1272.519775,1978.353760 1258.345825,1987.850098 
	C1251.818726,1992.223267 1244.006958,1994.678833 1236.394775,1998.028320 
z"/>
<path fill="#DAF3ED" opacity="1.000000" stroke="none" 
	d="
M23.707821,46.771011 
	C29.121635,36.132153 38.501587,31.615511 49.740974,30.071093 
	C51.214481,29.868618 52.736576,30.008608 54.236164,30.008596 
	C473.654388,30.005478 893.072632,30.026632 1312.490845,29.865202 
	C1322.442383,29.861372 1330.597534,33.151482 1338.228149,38.793495 
	C1339.368408,39.636559 1340.072510,41.069370 1341.035400,42.569855 
	C1341.092285,42.910385 1341.043579,42.957500 1340.668213,42.961380 
	C1328.405518,31.901600 1313.840820,31.835339 1298.756592,31.845387 
	C1029.676392,32.024647 760.596008,31.975300 491.515625,31.978600 
	C488.683594,31.978634 485.851532,32.024963 482.549042,32.029930 
	C421.722260,32.017578 361.365967,32.024979 300.540466,32.021854 
	C217.596619,32.006592 135.121857,31.959761 52.647480,32.120239 
	C48.482899,32.128338 43.826843,33.059143 40.271351,35.087997 
	C34.471260,38.397682 29.390261,42.967552 24.005850,47.005703 
	C24.005850,47.005703 23.809799,46.845833 23.707821,46.771011 
z"/>
<path fill="#CEEDE1" opacity="1.000000" stroke="none" 
	d="
M298.409821,1962.001221 
	C309.979340,1953.355591 321.620209,1944.210205 333.975525,1936.161499 
	C358.904755,1919.921753 383.637268,1903.237305 409.540710,1888.674805 
	C436.618683,1873.451904 464.652130,1859.800903 492.884338,1846.801758 
	C513.379883,1837.364868 534.483826,1828.819092 556.032349,1822.209961 
	C582.191956,1814.186523 608.929993,1807.765503 635.750366,1802.276611 
	C654.513489,1798.436523 673.781311,1796.592285 692.921448,1795.200806 
	C710.975647,1793.888428 729.196350,1793.432373 747.274780,1794.207886 
	C777.800110,1795.517578 808.122009,1799.305298 837.669006,1807.471313 
	C854.800171,1812.205688 871.927979,1817.158813 888.630615,1823.194214 
	C925.050293,1836.354004 961.823730,1848.539307 996.764587,1865.662109 
	C1029.089111,1881.502808 1060.571777,1898.718140 1090.720459,1918.305298 
	C1111.905884,1932.069214 1132.534912,1946.689575 1153.391235,1960.958374 
	C1154.320190,1961.593872 1155.038574,1962.537109 1155.929932,1963.667725 
	C1134.502808,1956.436768 1113.087036,1948.617798 1091.478149,1941.374878 
	C1060.232788,1930.901978 1028.295776,1923.052734 995.869019,1917.154907 
	C983.343323,1914.876709 970.753113,1916.306885 958.210754,1915.824341 
	C917.914673,1914.273804 880.629089,1925.143799 844.567810,1941.726196 
	C822.817261,1951.727783 800.883484,1961.365356 779.450317,1972.008911 
	C768.177063,1977.607178 757.683350,1984.831421 747.085754,1991.704224 
	C743.164978,1994.246826 739.923767,1995.201050 735.777466,1992.451294 
	C728.761169,1987.797607 721.589966,1983.370972 714.391724,1979.000610 
	C710.132080,1976.414307 705.771790,1973.968872 701.325378,1971.719604 
	C684.158447,1963.035522 666.906128,1954.520020 649.746643,1945.821533 
	C626.703186,1934.140137 603.075073,1924.035278 578.148560,1916.928955 
	C553.042175,1909.771362 527.397034,1907.274170 501.641907,1909.319946 
	C480.887268,1910.968628 460.220764,1914.722778 439.752075,1918.747559 
	C406.907684,1925.205811 375.033173,1935.401733 343.359039,1946.110229 
	C329.978088,1950.634155 316.832642,1955.853394 303.564972,1960.715210 
	C302.027863,1961.278564 300.393616,1961.576782 298.409821,1962.001221 
z"/>
<path fill="#A3DED3" opacity="1.000000" stroke="none" 
	d="
M483.019501,32.049679 
	C485.851532,32.024963 488.683594,31.978634 491.515625,31.978600 
	C760.596008,31.975300 1029.676392,32.024647 1298.756592,31.845387 
	C1313.840820,31.835339 1328.405518,31.901600 1340.643921,42.985081 
	C1341.380615,44.235935 1341.499146,45.649601 1342.195312,46.668385 
	C1346.681763,53.233593 1348.150269,60.396709 1348.145142,68.349060 
	C1348.022095,256.929993 1348.045044,445.511017 1348.042236,634.092041 
	C1348.042114,636.091125 1348.055176,638.090149 1347.803223,640.551941 
	C1347.366211,641.004639 1347.188232,640.994629 1347.010254,640.984619 
	C1340.750977,619.245483 1330.449707,599.245605 1320.111450,579.305054 
	C1297.318359,535.342041 1270.143066,494.216675 1239.822021,455.066711 
	C1219.089111,428.296783 1196.375732,403.363861 1171.596436,380.430573 
	C1148.017090,358.607880 1122.471313,339.198517 1093.497925,324.801636 
	C1086.670776,321.409180 1079.662476,318.381256 1072.150879,314.860840 
	C1066.438110,312.660706 1061.393188,310.506439 1056.165039,308.980286 
	C1049.525024,307.041962 1042.736328,305.613190 1035.730103,303.717621 
	C1033.522827,302.984619 1031.619507,302.209412 1029.667847,302.057831 
	C1011.516357,300.648163 993.370789,299.080750 975.194336,298.097565 
	C961.110046,297.335724 946.983276,297.377869 932.877075,296.997223 
	C922.428345,296.715271 911.979858,296.390717 901.536377,295.961975 
	C896.242065,295.744629 890.943726,295.403229 885.673828,294.859802 
	C870.699219,293.315674 855.722961,291.766113 840.776367,289.977051 
	C826.814331,288.305756 812.878540,286.402344 798.951843,284.453247 
	C789.283081,283.100037 779.649353,281.496338 769.715576,279.751251 
	C751.480652,275.309692 733.416809,271.550232 715.603149,266.843719 
	C678.655579,257.081879 642.918274,244.106979 609.258423,225.700912 
	C580.587280,210.022858 553.957336,191.706070 533.031555,166.301041 
	C523.769775,155.056747 514.823608,143.281555 507.612091,130.673279 
	C490.217255,100.260826 483.888245,66.756752 483.019501,32.049679 
z"/>
<path fill="#CEEDE1" opacity="1.000000" stroke="none" 
	d="
M953.987793,366.984161 
	C946.871399,372.391113 939.982910,378.133789 932.598083,383.145081 
	C905.216125,401.726196 877.970093,420.535278 850.089600,438.345367 
	C828.662415,452.033051 806.521973,464.636688 784.391541,477.180389 
	C767.753235,486.611115 750.844360,495.624390 733.673035,504.042419 
	C698.701721,521.186646 663.404541,537.719666 626.348328,549.937561 
	C596.356445,559.826172 566.369873,569.984009 535.823914,577.863159 
	C509.042786,584.771179 481.570679,589.180237 454.240875,593.710266 
	C439.236847,596.197144 423.915802,596.955566 408.701935,597.941650 
	C392.796570,598.972534 376.828705,600.176086 360.923431,599.802917 
	C337.546753,599.254333 314.176788,597.704590 290.848511,595.979431 
	C258.966583,593.621643 227.740662,587.205139 196.872528,579.116455 
	C163.345352,570.331116 130.412598,559.588013 99.026527,544.836914 
	C73.312042,532.751343 48.246147,519.289307 22.815157,506.592773 
	C19.518883,504.947113 18.943533,502.690063 18.949375,499.411957 
	C19.027500,455.580566 19.004707,411.748993 19.305344,367.291199 
	C31.090424,354.921295 42.355835,342.950531 54.119511,331.491211 
	C69.089363,316.908691 86.110603,304.947052 104.595512,295.291779 
	C135.940567,278.919281 169.149414,271.518158 204.701782,274.846558 
	C225.198120,276.765411 244.984070,281.294189 264.421631,287.747314 
	C291.044830,296.585938 316.194458,308.776276 341.092621,321.536865 
	C346.701111,324.411285 352.364258,327.179108 358.221130,330.251770 
	C369.908966,337.810272 381.137329,345.534698 392.933319,352.264130 
	C400.525635,356.595428 408.951996,359.464691 417.224121,363.250092 
	C439.745819,375.064850 461.864349,386.991486 484.393097,398.085114 
	C518.066345,414.666534 552.929993,428.248169 590.044983,434.841675 
	C606.648804,437.791382 623.518005,439.891754 640.348450,440.721161 
	C654.373962,441.412354 668.584412,440.320709 682.594177,438.871033 
	C700.873718,436.979492 719.258301,435.000427 737.198547,431.183167 
	C766.751221,424.895081 796.308777,418.203888 825.266968,409.658600 
	C859.544739,399.543579 893.188843,387.281250 927.108154,375.951416 
	C936.066956,372.958984 945.027832,369.973083 953.987793,366.984161 
z"/>
<path fill="#BBE7DD" opacity="1.000000" stroke="none" 
	d="
M358.002228,329.995972 
	C352.364258,327.179108 346.701111,324.411285 341.092621,321.536865 
	C316.194458,308.776276 291.044830,296.585938 264.421631,287.747314 
	C244.984070,281.294189 225.198120,276.765411 204.701782,274.846558 
	C169.149414,271.518158 135.940567,278.919281 104.595512,295.291779 
	C86.110603,304.947052 69.089363,316.908691 54.119511,331.491211 
	C42.355835,342.950531 31.090424,354.921295 19.309853,366.821136 
	C19.010553,266.249725 18.925486,165.521820 19.208790,64.794968 
	C19.224804,59.101376 22.265982,53.416290 23.952511,47.366478 
	C29.390261,42.967552 34.471260,38.397682 40.271351,35.087997 
	C43.826843,33.059143 48.482899,32.128338 52.647480,32.120239 
	C135.121857,31.959761 217.596619,32.006592 300.480652,32.386719 
	C297.901886,41.758698 294.790863,50.716648 291.949890,59.759445 
	C284.749481,82.677940 280.745514,106.264709 279.228546,130.143677 
	C278.367584,143.695999 279.602295,157.386826 279.996643,171.012268 
	C280.588074,191.446533 284.975952,211.225769 291.439606,230.477905 
	C303.879791,267.531311 325.168243,298.907715 353.841248,325.365387 
	C355.359650,326.766510 356.621124,328.446045 358.002228,329.995972 
z"/>
<path fill="#BBE7DD" opacity="1.000000" stroke="none" 
	d="
M954.289795,366.822815 
	C945.027832,369.973083 936.066956,372.958984 927.108154,375.951416 
	C893.188843,387.281250 859.544739,399.543579 825.266968,409.658600 
	C796.308777,418.203888 766.751221,424.895081 737.198547,431.183167 
	C719.258301,435.000427 700.873718,436.979492 682.594177,438.871033 
	C668.584412,440.320709 654.373962,441.412354 640.348450,440.721161 
	C623.518005,439.891754 606.648804,437.791382 590.044983,434.841675 
	C552.929993,428.248169 518.066345,414.666534 484.393097,398.085114 
	C461.864349,386.991486 439.745819,375.064850 417.497101,363.005310 
	C418.190063,362.372070 418.887146,362.010101 419.460968,362.150787 
	C441.397919,367.527740 463.591217,369.556335 486.080353,366.968658 
	C503.341888,364.982483 520.875977,364.060638 537.744324,360.253235 
	C566.381958,353.789337 594.887390,346.376831 622.912048,337.642395 
	C668.312439,323.492493 712.452393,305.765289 756.256897,287.273376 
	C761.013184,285.265533 765.427246,282.447052 770.000000,280.004578 
	C779.649353,281.496338 789.283081,283.100037 798.951843,284.453247 
	C812.878540,286.402344 826.814331,288.305756 840.776367,289.977051 
	C855.722961,291.766113 870.699219,293.315674 885.673828,294.859802 
	C890.943726,295.403229 896.242065,295.744629 901.536377,295.961975 
	C911.979858,296.390717 922.428345,296.715271 932.877075,296.997223 
	C946.983276,297.377869 961.110046,297.335724 975.194336,298.097565 
	C993.370789,299.080750 1011.516357,300.648163 1029.667847,302.057831 
	C1031.619507,302.209412 1033.522827,302.984619 1035.571045,304.017181 
	C1034.278809,305.954559 1032.991455,307.510956 1031.430298,308.711090 
	C1010.171692,325.052246 988.865234,341.331146 967.617065,357.685730 
	C966.535889,358.517914 965.875427,359.896576 965.019104,361.020813 
	C961.543396,362.901031 958.067627,364.781250 954.289795,366.822815 
z"/>
<path fill="#C9ECE3" opacity="1.000000" stroke="none" 
	d="
M965.402954,361.003693 
	C965.875427,359.896576 966.535889,358.517914 967.617065,357.685730 
	C988.865234,341.331146 1010.171692,325.052246 1031.430298,308.711090 
	C1032.991455,307.510956 1034.278809,305.954559 1035.852539,304.264252 
	C1042.736328,305.613190 1049.525024,307.041962 1056.165039,308.980286 
	C1061.393188,310.506439 1066.438110,312.660706 1071.785522,314.822205 
	C1067.782471,317.508667 1063.744629,320.346710 1059.303589,322.238190 
	C1030.082031,334.684357 1000.777771,346.936340 971.483704,359.211609 
	C969.657532,359.976868 967.689087,360.402802 965.402954,361.003693 
z"/>
<path fill="#C9ECE3" opacity="1.000000" stroke="none" 
	d="
M1347.013672,641.303833 
	C1347.188232,640.994629 1347.366211,641.004639 1347.812256,641.022339 
	C1348.105347,641.827759 1348.130371,642.625427 1348.155518,643.423157 
	C1347.776001,642.823120 1347.396484,642.223083 1347.013672,641.303833 
z"/>
<path fill="#B1E3DA" opacity="1.000000" stroke="none" 
	d="
M769.715576,279.751282 
	C765.427246,282.447052 761.013184,285.265533 756.256897,287.273376 
	C712.452393,305.765289 668.312439,323.492493 622.912048,337.642395 
	C594.887390,346.376831 566.381958,353.789337 537.744324,360.253235 
	C520.875977,364.060638 503.341888,364.982483 486.080353,366.968658 
	C463.591217,369.556335 441.397919,367.527740 419.460968,362.150787 
	C418.887146,362.010101 418.190063,362.372070 417.277527,362.744415 
	C408.951996,359.464691 400.525635,356.595428 392.933319,352.264130 
	C381.137329,345.534698 369.908966,337.810272 358.221130,330.251770 
	C356.621124,328.446045 355.359650,326.766510 353.841248,325.365387 
	C325.168243,298.907715 303.879791,267.531311 291.439606,230.477905 
	C284.975952,211.225769 280.588074,191.446533 279.996643,171.012268 
	C279.602295,157.386826 278.367584,143.695999 279.228546,130.143677 
	C280.745514,106.264709 284.749481,82.677940 291.949890,59.759445 
	C294.790863,50.716648 297.901886,41.758698 300.949799,32.397247 
	C361.365967,32.024979 421.722260,32.017578 482.549042,32.029930 
	C483.888245,66.756752 490.217255,100.260826 507.612091,130.673279 
	C514.823608,143.281555 523.769775,155.056747 533.031555,166.301041 
	C553.957336,191.706070 580.587280,210.022858 609.258423,225.700912 
	C642.918274,244.106979 678.655579,257.081879 715.603149,266.843719 
	C733.416809,271.550232 751.480652,275.309692 769.715576,279.751282 
z"/>
</svg>